<svg version="1.1" id="Layer_1" xmlns="http://www.w3.org/2000/svg" xmlns:xlink="http://www.w3.org/1999/xlink" x="0px" y="0px"
	 width="100%" viewBox="0 0 1200 1200" enable-background="new 0 0 1200 1200" xml:space="preserve">
<path fill="#FFFFFF" opacity="1.000000" stroke="none" 
	d="
M673.000000,1201.000000 
	C448.666656,1201.000000 224.833328,1201.000000 1.000000,1201.000000 
	C1.000000,801.000000 1.000000,401.000000 1.000000,1.000000 
	C401.000000,1.000000 801.000000,1.000000 1201.000000,1.000000 
	C1201.000000,401.000000 1201.000000,801.000000 1201.000000,1201.000000 
	C1025.166626,1201.000000 849.333313,1201.000000 673.000000,1201.000000 
M408.362061,749.133545 
	C407.972504,750.187683 407.752472,751.348145 407.168182,752.280151 
	C397.009613,768.484253 386.881409,784.708130 376.596191,800.831848 
	C358.487549,829.220032 340.277039,857.543152 321.932159,886.169800 
	C316.053497,880.686646 309.831421,875.547058 304.407288,869.670959 
	C295.925262,860.482117 287.812408,850.935852 279.848938,841.288574 
	C264.657379,822.885071 250.735138,803.578308 240.052628,782.144653 
	C232.514618,767.020203 224.945190,751.894958 218.028244,736.483459 
	C213.747375,726.945312 210.432922,716.947021 207.117966,707.010681 
	C204.724777,699.837280 203.091385,692.412476 200.987869,685.137756 
	C200.726822,684.234985 199.658554,683.565674 198.053909,681.768555 
	C212.004013,775.936340 284.745026,915.384399 437.783813,982.838135 
	C574.662659,1043.169189 735.826355,1018.271179 835.845947,944.402100 
	C831.656799,940.533691 827.590210,936.841187 823.592712,933.075256 
	C811.419617,921.606812 799.262939,910.120789 787.119019,898.621460 
	C774.128662,886.320618 761.170410,873.985779 748.178772,861.686218 
	C736.154663,850.302612 724.093628,838.958130 712.069641,827.574341 
	C699.078186,815.274658 686.070496,802.991638 673.145508,790.622375 
	C662.470032,780.405762 651.929199,770.048584 641.280823,759.803467 
	C635.315613,754.064209 629.263855,748.414612 623.230591,742.746399 
	C618.733521,738.521362 614.670654,739.128540 610.953369,744.097534 
	C600.219910,758.444824 589.316345,772.664795 578.535706,786.977051 
	C564.630920,805.436890 550.800110,823.952393 536.894165,842.411255 
	C533.106079,847.439575 529.162048,852.350525 524.879700,857.840820 
	C520.460693,852.893066 516.546997,848.449036 512.566467,844.065796 
	C499.148834,829.290466 485.748291,814.499207 472.262878,799.785767 
	C460.095978,786.510803 447.784332,773.368530 435.624695,760.086914 
	C431.415344,755.489136 427.423065,750.688965 423.418762,745.908203 
	C419.442108,741.160400 416.579742,740.990540 412.069122,745.429382 
	C411.000946,746.480591 409.962494,747.562012 408.362061,749.133545 
M480.045288,201.448380 
	C427.336029,218.064636 379.796295,243.976990 337.379059,279.925201 
	C339.166504,281.616943 340.346069,282.733337 341.290955,283.627655 
	C410.029510,229.627960 488.070587,200.691437 574.776978,196.255539 
	C632.166870,193.319458 688.178772,202.032150 742.631592,222.697571 
	C740.767090,224.679306 739.277588,225.849121 738.310364,227.354492 
	C728.847412,242.082230 719.438049,256.844696 710.078064,271.638184 
	C691.883484,300.394836 673.739014,329.183136 655.556946,357.947784 
	C645.770752,373.429962 636.008911,388.928345 626.079102,404.318115 
	C624.629700,406.564514 624.623657,407.785309 626.976196,409.007477 
	C630.138062,410.650208 633.355896,412.217255 636.367493,414.107117 
	C638.929688,415.714905 639.892517,414.789246 641.288208,412.462585 
	C646.790588,403.290131 652.510620,394.245300 658.282288,385.237915 
	C671.139282,365.173187 684.164062,345.215576 696.958435,325.111237 
	C714.622375,297.355072 732.182007,269.532135 749.688232,241.676163 
	C754.941711,233.316788 759.868103,224.751831 765.582275,215.216415 
	C747.939392,209.293396 731.343628,202.841980 714.250610,198.236130 
	C697.850830,193.817062 681.026489,190.715439 664.218750,188.147232 
	C649.822021,185.947433 635.201965,184.487503 620.650024,184.187119 
	C596.191589,183.682312 571.644714,182.867249 547.338684,187.009048 
	C534.848267,189.137436 522.314331,191.073959 509.914124,193.647003 
	C500.110107,195.681320 490.480194,198.554626 480.045288,201.448380 
M800.000000,587.500000 
	C800.000000,595.260986 800.000000,603.022034 800.000000,611.000000 
	C811.615356,611.000000 822.593140,611.011108 833.570923,610.996033 
	C840.640381,610.986267 844.990723,606.714661 844.994263,599.739319 
	C845.008240,572.247559 845.006104,544.755737 844.995300,517.263977 
	C844.992981,511.363464 841.253662,506.336853 835.548828,506.139801 
	C823.799744,505.733887 812.026855,506.017670 800.000000,506.017670 
	C800.000000,533.232056 800.000000,559.866028 800.000000,587.500000 
M485.060699,532.697998 
	C483.611328,537.625854 482.161987,542.553650 480.712646,547.481445 
	C480.420258,547.416504 480.127869,547.351562 479.835480,547.286621 
	C479.835480,533.669495 479.835480,520.052307 479.835480,506.245728 
	C474.504120,506.245728 469.441589,506.245728 464.269714,506.245728 
	C464.269714,541.217712 464.269714,575.943420 464.269714,610.700195 
	C469.607147,610.700195 474.669861,610.700195 480.187622,610.700195 
	C480.187622,595.668518 480.187622,580.931702 480.187622,566.000000 
	C482.796509,566.000000 484.975433,566.218018 487.094635,565.954956 
	C491.585419,565.397522 493.274384,566.858398 493.114594,571.688904 
	C492.751160,582.674805 493.000000,593.681030 493.000000,604.678955 
	C493.000000,606.757690 493.000000,608.836426 493.000000,610.762268 
	C498.719574,610.762268 503.666901,610.762268 508.998016,610.762268 
	C508.998016,594.071594 509.011871,577.615417 508.960938,561.159485 
	C508.958099,560.247498 508.689972,559.051941 508.082977,558.473572 
	C504.780487,555.326782 501.332855,552.332397 497.678101,549.054993 
	C502.206818,535.636353 507.137726,521.025940 512.208801,506.000214 
	C506.731232,506.000214 501.906219,506.100037 497.088196,505.960022 
	C494.505005,505.884918 493.476746,506.755585 492.736115,509.390320 
	C490.595398,517.005615 487.944672,524.477478 485.060699,532.697998 
M757.000000,547.500000 
	C757.000000,533.747986 757.000000,519.995972 757.000000,506.335388 
	C751.315186,506.335388 746.252869,506.335388 741.001160,506.335388 
	C741.001160,538.627319 740.958252,570.584412 741.047241,602.541138 
	C741.060608,607.354248 746.203003,611.934448 751.223145,611.980408 
	C759.215454,612.053650 767.208923,612.005920 775.201904,611.998352 
	C782.929993,611.990967 786.997070,607.899414 786.998230,600.119873 
	C787.002563,570.479187 787.000000,540.838501 787.000000,511.197845 
	C787.000000,509.586121 787.000000,507.974396 787.000000,506.276550 
	C781.435181,506.276550 776.374939,506.276550 771.000000,506.276550 
	C771.000000,508.351349 771.000000,510.152954 771.000000,511.954590 
	C771.000000,538.597900 770.931702,565.241577 771.075745,591.884094 
	C771.096680,595.747742 770.106384,597.583313 766.033081,597.028015 
	C764.725281,596.849670 763.353271,596.854004 762.044067,597.027283 
	C758.074829,597.552673 756.858765,595.935730 756.916687,591.960693 
	C757.127686,577.476440 757.000000,562.987305 757.000000,547.500000 
M1012.993164,540.734680 
	C1011.328491,531.627380 1010.102661,522.412720 1007.904724,513.435974 
	C1003.791504,496.638062 999.968994,479.691071 994.470154,463.328827 
	C986.422180,439.381226 976.424744,416.155396 963.481750,394.365906 
	C960.074158,395.222839 959.361816,397.012390 961.025208,400.398102 
	C965.846924,410.212402 970.617798,420.064972 974.962952,430.095581 
	C977.966736,437.029907 980.335144,444.248810 982.798767,451.405487 
	C985.630676,459.632050 988.811707,467.796204 990.840454,476.228180 
	C994.023499,489.457825 996.934814,502.805237 998.926025,516.256042 
	C1001.485962,533.548157 1003.893738,550.947632 1004.777161,568.381409 
	C1005.855591,589.664429 1005.156250,611.012390 1002.055115,632.208191 
	C1000.399780,643.522339 999.942749,655.045715 997.739990,666.237610 
	C994.586121,682.262085 990.285095,698.059265 986.636780,713.990845 
	C986.370178,715.155029 987.060486,717.416321 987.922791,717.807434 
	C991.472778,719.417542 995.261047,720.502197 1000.275146,722.233521 
	C1004.271118,702.078247 1008.549011,682.643677 1011.856689,663.045410 
	C1013.977600,650.478882 1015.573242,637.688110 1015.814453,624.967712 
	C1016.341675,597.170837 1016.965271,569.314636 1012.993164,540.734680 
M431.415344,585.000000 
	C435.459961,584.346375 436.878723,586.135559 437.093048,590.141235 
	C437.406647,596.002747 438.182220,601.859192 439.162292,607.649841 
	C439.376038,608.912781 441.216370,610.751160 442.422882,610.845337 
	C447.177307,611.216064 451.977722,610.997314 457.490967,610.997314 
	C451.599609,575.649719 445.813263,540.932129 440.035095,506.263672 
	C433.424774,506.263672 427.329498,506.263672 421.383026,506.263672 
	C415.354187,541.193970 409.373505,575.845093 403.333160,610.841919 
	C409.830933,610.841919 415.114929,610.841919 420.756592,610.841919 
	C421.840973,604.283203 423.447723,597.786194 423.825928,591.218323 
	C424.108673,586.307495 425.580048,584.200684 431.415344,585.000000 
M543.063171,575.767700 
	C541.247498,587.393799 539.431824,599.019897 537.587830,610.827820 
	C543.976318,610.827820 549.265503,610.827820 554.929688,610.827820 
	C555.965210,603.494019 557.154846,596.291199 557.951782,589.045288 
	C558.612671,583.036926 563.038452,585.502136 566.180664,585.003052 
	C569.619934,584.456787 570.761841,586.250671 571.039307,589.409119 
	C571.568481,595.430969 572.216003,601.450439 573.117737,607.425171 
	C573.311768,608.710510 574.727356,610.757324 575.690552,610.822449 
	C580.746643,611.164490 585.838196,610.982422 591.497498,610.982422 
	C585.572449,575.473633 579.780762,540.763672 574.042603,506.374664 
	C567.210754,506.374664 561.152527,506.374664 555.403687,506.374664 
	C551.389343,529.523254 547.446350,552.260010 543.063171,575.767700 
M318.000000,599.481934 
	C318.000000,603.246460 318.000000,607.010986 318.000000,610.663330 
	C323.688690,610.663330 328.750549,610.663330 334.250854,610.663330 
	C334.250854,595.272644 334.250854,580.215515 334.250854,565.000000 
	C339.518433,565.000000 344.336609,565.035095 349.154114,564.991821 
	C356.577911,564.925049 360.959320,560.565979 360.987732,553.129700 
	C361.033478,541.142395 361.012482,529.154724 360.994507,517.167236 
	C360.986023,511.531097 357.429199,506.438263 351.958649,506.197296 
	C340.731903,505.702820 329.468140,506.048798 318.000000,506.048798 
	C318.000000,537.256775 318.000000,567.872620 318.000000,599.481934 
M856.097900,610.215454 
	C866.275269,610.215454 876.452576,610.215454 886.716919,610.215454 
	C886.716919,605.758850 886.716919,601.028320 886.716919,595.837158 
	C882.037048,595.837158 877.627075,595.837158 873.343933,595.837158 
	C873.343933,585.301758 873.343933,575.235535 873.343933,564.714355 
	C878.089783,564.714355 882.496033,564.714355 886.771301,564.714355 
	C886.771301,559.632080 886.771301,555.016785 886.771301,549.946716 
	C882.151428,549.946716 877.738403,549.946716 873.289795,549.946716 
	C873.289795,540.080566 873.289795,530.682556 873.289795,520.823853 
	C877.978455,520.823853 882.387817,520.823853 886.648132,520.823853 
	C886.648132,515.618835 886.648132,510.889282 886.648132,506.382446 
	C876.226257,506.382446 866.159424,506.382446 856.011047,506.382446 
	C856.011047,540.928772 856.011047,575.092773 856.097900,610.215454 
M369.000000,555.500000 
	C369.000000,573.924500 369.000000,592.349060 369.000000,610.651855 
	C379.707092,610.651855 389.772278,610.651855 399.622253,610.651855 
	C399.622253,605.560974 399.622253,600.824036 399.622253,595.824951 
	C394.962067,595.824951 390.679626,595.824951 386.260864,595.824951 
	C386.260864,585.472534 386.260864,575.409180 386.260864,564.883057 
	C390.916962,564.883057 395.329437,564.883057 399.679626,564.883057 
	C399.679626,559.682129 399.679626,554.951294 399.679626,549.762573 
	C394.958160,549.762573 390.555237,549.762573 386.379333,549.762573 
	C386.379333,539.893188 386.379333,530.492432 386.379333,520.820557 
	C391.041626,520.820557 395.324860,520.820557 399.736267,520.820557 
	C399.736267,515.800720 399.736267,511.070862 399.736267,506.293335 
	C389.407104,506.293335 379.344116,506.293335 369.000000,506.293335 
	C369.000000,522.556763 369.000000,538.528381 369.000000,555.500000 
M652.000000,576.500000 
	C652.000000,558.081543 652.000000,539.663025 652.000000,520.789917 
	C656.680786,520.789917 660.750977,520.789917 664.636597,520.789917 
	C664.636597,515.591675 664.636597,510.860077 664.636597,506.383820 
	C650.544800,506.383820 636.818542,506.383820 623.234009,506.383820 
	C623.234009,511.383514 623.234009,515.997253 623.234009,521.060913 
	C627.524841,521.060913 631.602844,521.060913 636.096680,521.060913 
	C636.096680,551.238586 636.096680,580.957703 636.096680,610.701233 
	C641.609863,610.701233 646.670654,610.701233 652.000000,610.701233 
	C652.000000,599.436279 652.000000,588.468140 652.000000,576.500000 
M707.001221,608.298584 
	C707.795227,609.197571 708.546387,610.824036 709.390381,610.873779 
	C713.815308,611.134399 718.263733,610.995544 723.131836,610.995544 
	C723.131836,580.725281 723.131836,551.003235 723.131836,520.824951 
	C727.643066,520.824951 731.718628,520.824951 735.653320,520.824951 
	C735.653320,515.625427 735.653320,510.898132 735.653320,506.368469 
	C721.576843,506.368469 707.849548,506.368469 694.219727,506.368469 
	C694.219727,511.352631 694.219727,515.965637 694.219727,521.032288 
	C698.494568,521.032288 702.572510,521.032288 707.000000,521.032288 
	C707.000000,550.105225 707.000000,578.717407 707.001221,608.298584 
M613.000000,527.500122 
	C613.000000,520.403870 613.000000,513.307617 613.000000,506.351807 
	C607.286011,506.351807 602.218811,506.351807 597.379395,506.351807 
	C597.379395,541.433228 597.379395,576.161926 597.379395,610.767578 
	C608.039307,610.767578 618.318481,610.767578 628.737549,610.767578 
	C628.737549,605.802307 628.737549,601.072388 628.737549,595.880005 
	C623.413635,595.880005 618.337708,595.880005 613.000000,595.880005 
	C613.000000,573.109985 613.000000,550.804993 613.000000,527.500122 
M672.000000,550.500000 
	C672.000000,570.571777 672.000000,590.643555 672.000000,610.686462 
	C677.645874,610.686462 682.703491,610.686462 687.709900,610.686462 
	C687.709900,575.677734 687.709900,540.983337 687.709900,506.313293 
	C682.354614,506.313293 677.297058,506.313293 672.000000,506.313293 
	C672.000000,520.916809 672.000000,535.208374 672.000000,550.500000 
M456.759155,685.000000 
	C459.757782,684.999695 462.757294,684.952942 465.754822,685.010071 
	C470.125946,685.093384 472.072113,682.944092 472.017029,678.637207 
	C471.944611,672.974060 472.046814,667.308838 471.985718,661.645386 
	C471.929382,656.424561 470.473938,655.072083 465.038544,655.005432 
	C462.452698,654.973755 459.866089,655.000000 457.285858,655.000000 
	C457.285858,649.633606 457.285858,645.039001 457.285858,640.368103 
	C459.623169,640.368103 461.669220,640.368103 463.815125,640.368103 
	C463.964508,642.665222 464.090637,644.604614 464.223328,646.644897 
	C466.935272,646.644897 469.316925,646.644897 471.810333,646.644897 
	C471.958038,644.359314 472.083435,642.418579 472.216980,640.352173 
	C474.573029,640.352173 476.611481,640.352173 479.075012,640.352173 
	C479.075012,655.287903 479.075012,669.880981 479.075012,684.656250 
	C481.887299,684.656250 484.259613,684.656250 487.234009,684.656250 
	C487.234009,669.612610 487.234009,654.901672 487.234009,640.268188 
	C489.779449,640.034241 491.715271,639.856384 493.578918,639.685059 
	C493.578918,636.964478 493.578918,634.592957 493.578918,632.005371 
	C480.290955,632.005371 467.421539,631.981995 454.552307,632.020447 
	C450.961273,632.031128 449.048126,633.965393 449.019592,637.556030 
	C448.967987,644.052612 449.008209,650.549927 448.999390,657.046936 
	C448.993774,661.167969 451.092957,663.069092 455.154419,663.007080 
	C457.946381,662.964478 460.739502,662.998901 464.245026,662.998901 
	C463.826477,665.795166 463.212341,667.993835 463.223083,670.189514 
	C463.253235,676.369202 463.354584,676.368713 457.275574,675.484741 
	C457.275574,673.631226 457.275574,671.751648 457.275574,669.439087 
	C454.579193,669.439087 451.932495,669.439087 449.000214,669.439087 
	C449.000214,672.599670 449.100067,675.419678 448.978149,678.230103 
	C448.767487,683.085999 451.033325,685.295044 456.759155,685.000000 
M871.439514,659.000000 
	C783.729797,659.000000 696.020142,659.000000 607.900757,659.000000 
	C608.121094,661.069336 608.267517,662.444031 608.406067,663.745361 
	C699.074951,663.745361 789.287048,663.745361 879.652100,663.745361 
	C879.652100,662.115723 879.652100,660.743774 879.652100,659.000000 
	C877.025085,659.000000 874.720276,659.000000 871.439514,659.000000 
M548.989868,679.967346 
	C548.993225,666.312927 548.952576,652.658264 549.032104,639.004272 
	C549.051086,635.743713 548.504761,632.487671 544.886597,632.206848 
	C538.682983,631.725403 532.414917,632.073914 526.326538,632.073914 
	C526.326538,650.105469 526.326538,667.352356 526.326538,684.986023 
	C532.444641,684.986023 538.268677,685.299255 544.021301,684.796448 
	C545.761475,684.644409 547.304016,682.231689 548.989868,679.967346 
M569.000000,676.292480 
	C569.027100,684.135498 569.902527,684.995911 577.860352,684.999878 
	C579.356018,685.000610 580.851746,685.000916 582.347412,684.999817 
	C590.031006,684.994080 590.995178,684.060730 590.998840,676.583374 
	C591.003662,666.612061 590.944397,656.640442 591.012756,646.669556 
	C591.121460,630.812439 591.863098,631.923706 576.136230,632.006226 
	C570.299133,632.036865 569.016785,633.375549 569.006165,639.440186 
	C568.985229,651.405762 569.000000,663.371338 569.000000,676.292480 
M512.000000,659.498718 
	C512.000000,665.258972 512.000000,671.019165 512.000000,676.706482 
	C509.313995,676.706482 507.384491,676.706482 504.868713,676.706482 
	C504.868713,661.711121 504.868713,646.994385 504.868713,632.276306 
	C502.012146,632.276306 499.751251,632.276306 497.034821,632.276306 
	C497.034821,648.489075 496.952759,664.432251 497.106445,680.373230 
	C497.135986,683.433899 499.408936,684.959167 502.479523,684.986877 
	C505.975952,685.018494 509.473114,685.027039 512.969482,684.993286 
	C518.590881,684.939026 519.977173,683.578735 519.989746,677.929504 
	C520.020752,663.942749 520.009888,649.955933 519.982178,635.969177 
	C519.979675,634.706787 519.733215,633.444946 519.614014,632.315063 
	C516.938232,632.315063 514.677917,632.315063 512.000000,632.315063 
	C512.000000,641.248718 512.000000,649.874023 512.000000,659.498718 
M335.509216,665.000000 
	C367.559998,665.000000 399.610809,665.000000 432.065063,665.000000 
	C431.870575,662.961365 431.739532,661.587585 431.610962,660.239746 
	C394.960236,660.239746 358.749298,660.239746 322.327393,660.239746 
	C322.327393,661.852112 322.327393,663.222961 322.327393,665.000000 
	C326.585693,665.000000 330.549591,665.000000 335.509216,665.000000 
M563.000000,680.327332 
	C563.000000,664.297241 563.000000,648.267212 563.000000,632.292358 
	C559.973572,632.292358 557.716675,632.292358 555.308228,632.292358 
	C555.308228,649.918213 555.308228,667.251709 555.308228,685.145630 
	C558.195618,683.745605 563.096558,688.092834 563.000000,680.327332 
z"/>
<path fill="#2F4D54" opacity="1.000000" stroke="none" 
	d="
M408.636200,748.881470 
	C409.962494,747.562012 411.000946,746.480591 412.069122,745.429382 
	C416.579742,740.990540 419.442108,741.160400 423.418762,745.908203 
	C427.423065,750.688965 431.415344,755.489136 435.624695,760.086914 
	C447.784332,773.368530 460.095978,786.510803 472.262878,799.785767 
	C485.748291,814.499207 499.148834,829.290466 512.566467,844.065796 
	C516.546997,848.449036 520.460693,852.893066 524.879700,857.840820 
	C529.162048,852.350525 533.106079,847.439575 536.894165,842.411255 
	C550.800110,823.952393 564.630920,805.436890 578.535706,786.977051 
	C589.316345,772.664795 600.219910,758.444824 610.953369,744.097534 
	C614.670654,739.128540 618.733521,738.521362 623.230591,742.746399 
	C629.263855,748.414612 635.315613,754.064209 641.280823,759.803467 
	C651.929199,770.048584 662.470032,780.405762 673.145508,790.622375 
	C686.070496,802.991638 699.078186,815.274658 712.069641,827.574341 
	C724.093628,838.958130 736.154663,850.302612 748.178772,861.686218 
	C761.170410,873.985779 774.128662,886.320618 787.119019,898.621460 
	C799.262939,910.120789 811.419617,921.606812 823.592712,933.075256 
	C827.590210,936.841187 831.656799,940.533691 835.845947,944.402100 
	C735.826355,1018.271179 574.662659,1043.169189 437.783813,982.838135 
	C284.745026,915.384399 212.004013,775.936340 198.053909,681.768555 
	C199.658554,683.565674 200.726822,684.234985 200.987869,685.137756 
	C203.091385,692.412476 204.724777,699.837280 207.117966,707.010681 
	C210.432922,716.947021 213.747375,726.945312 218.028244,736.483459 
	C224.945190,751.894958 232.514618,767.020203 240.052628,782.144653 
	C250.735138,803.578308 264.657379,822.885071 279.848938,841.288574 
	C287.812408,850.935852 295.925262,860.482117 304.407288,869.670959 
	C309.831421,875.547058 316.053497,880.686646 321.932159,886.169800 
	C340.277039,857.543152 358.487549,829.220032 376.596191,800.831848 
	C386.881409,784.708130 397.009613,768.484253 407.168182,752.280151 
	C407.752472,751.348145 407.972504,750.187683 408.636200,748.881470 
z"/>
<path fill="#2F4D54" opacity="1.000000" stroke="none" 
	d="
M480.409119,201.251877 
	C490.480194,198.554626 500.110107,195.681320 509.914124,193.647003 
	C522.314331,191.073959 534.848267,189.137436 547.338684,187.009048 
	C571.644714,182.867249 596.191589,183.682312 620.650024,184.187119 
	C635.201965,184.487503 649.822021,185.947433 664.218750,188.147232 
	C681.026489,190.715439 697.850830,193.817062 714.250610,198.236130 
	C731.343628,202.841980 747.939392,209.293396 765.582275,215.216415 
	C759.868103,224.751831 754.941711,233.316788 749.688232,241.676163 
	C732.182007,269.532135 714.622375,297.355072 696.958435,325.111237 
	C684.164062,345.215576 671.139282,365.173187 658.282288,385.237915 
	C652.510620,394.245300 646.790588,403.290131 641.288208,412.462585 
	C639.892517,414.789246 638.929688,415.714905 636.367493,414.107117 
	C633.355896,412.217255 630.138062,410.650208 626.976196,409.007477 
	C624.623657,407.785309 624.629700,406.564514 626.079102,404.318115 
	C636.008911,388.928345 645.770752,373.429962 655.556946,357.947784 
	C673.739014,329.183136 691.883484,300.394836 710.078064,271.638184 
	C719.438049,256.844696 728.847412,242.082230 738.310364,227.354492 
	C739.277588,225.849121 740.767090,224.679306 742.631592,222.697571 
	C688.178772,202.032150 632.166870,193.319458 574.776978,196.255539 
	C488.070587,200.691437 410.029510,229.627960 341.290955,283.627655 
	C340.346069,282.733337 339.166504,281.616943 337.379059,279.925201 
	C379.796295,243.976990 427.336029,218.064636 480.409119,201.251877 
z"/>
<path fill="#2F4D54" opacity="1.000000" stroke="none" 
	d="
M800.000000,587.000000 
	C800.000000,559.866028 800.000000,533.232056 800.000000,506.017670 
	C812.026855,506.017670 823.799744,505.733887 835.548828,506.139801 
	C841.253662,506.336853 844.992981,511.363464 844.995300,517.263977 
	C845.006104,544.755737 845.008240,572.247559 844.994263,599.739319 
	C844.990723,606.714661 840.640381,610.986267 833.570923,610.996033 
	C822.593140,611.011108 811.615356,611.000000 800.000000,611.000000 
	C800.000000,603.022034 800.000000,595.260986 800.000000,587.000000 
M816.000000,547.500000 
	C816.000000,563.572449 816.000000,579.644836 816.000000,596.000000 
	C818.869446,596.000000 821.199524,595.771973 823.468140,596.048523 
	C827.888733,596.587402 829.145508,594.845154 829.095276,590.457947 
	C828.874451,571.165771 829.145386,551.868164 828.949829,532.575378 
	C828.815613,519.336670 831.912720,521.017517 817.036560,521.101685 
	C816.773865,521.103149 816.512939,521.431885 816.000000,521.776855 
	C816.000000,529.910400 816.000000,538.205200 816.000000,547.500000 
z"/>
<path fill="#2F4D54" opacity="1.000000" stroke="none" 
	d="
M485.277466,532.351807 
	C487.944672,524.477478 490.595398,517.005615 492.736115,509.390320 
	C493.476746,506.755585 494.505005,505.884918 497.088196,505.960022 
	C501.906219,506.100037 506.731232,506.000214 512.208801,506.000214 
	C507.137726,521.025940 502.206818,535.636353 497.678101,549.054993 
	C501.332855,552.332397 504.780487,555.326782 508.082977,558.473572 
	C508.689972,559.051941 508.958099,560.247498 508.960938,561.159485 
	C509.011871,577.615417 508.998016,594.071594 508.998016,610.762268 
	C503.666901,610.762268 498.719574,610.762268 493.000000,610.762268 
	C493.000000,608.836426 493.000000,606.757690 493.000000,604.678955 
	C493.000000,593.681030 492.751160,582.674805 493.114594,571.688904 
	C493.274384,566.858398 491.585419,565.397522 487.094635,565.954956 
	C484.975433,566.218018 482.796509,566.000000 480.187622,566.000000 
	C480.187622,580.931702 480.187622,595.668518 480.187622,610.700195 
	C474.669861,610.700195 469.607147,610.700195 464.269714,610.700195 
	C464.269714,575.943420 464.269714,541.217712 464.269714,506.245728 
	C469.441589,506.245728 474.504120,506.245728 479.835480,506.245728 
	C479.835480,520.052307 479.835480,533.669495 479.835480,547.286621 
	C480.127869,547.351562 480.420258,547.416504 480.712646,547.481445 
	C482.161987,542.553650 483.611328,537.625854 485.277466,532.351807 
z"/>
<path fill="#2F4D54" opacity="1.000000" stroke="none" 
	d="
M757.000000,548.000000 
	C757.000000,562.987305 757.127686,577.476440 756.916687,591.960693 
	C756.858765,595.935730 758.074829,597.552673 762.044067,597.027283 
	C763.353271,596.854004 764.725281,596.849670 766.033081,597.028015 
	C770.106384,597.583313 771.096680,595.747742 771.075745,591.884094 
	C770.931702,565.241577 771.000000,538.597900 771.000000,511.954590 
	C771.000000,510.152954 771.000000,508.351349 771.000000,506.276550 
	C776.374939,506.276550 781.435181,506.276550 787.000000,506.276550 
	C787.000000,507.974396 787.000000,509.586121 787.000000,511.197845 
	C787.000000,540.838501 787.002563,570.479187 786.998230,600.119873 
	C786.997070,607.899414 782.929993,611.990967 775.201904,611.998352 
	C767.208923,612.005920 759.215454,612.053650 751.223145,611.980408 
	C746.203003,611.934448 741.060608,607.354248 741.047241,602.541138 
	C740.958252,570.584412 741.001160,538.627319 741.001160,506.335388 
	C746.252869,506.335388 751.315186,506.335388 757.000000,506.335388 
	C757.000000,519.995972 757.000000,533.747986 757.000000,548.000000 
z"/>
<path fill="#2F4D54" opacity="1.000000" stroke="none" 
	d="
M1012.996216,541.190613 
	C1016.965271,569.314636 1016.341675,597.170837 1015.814453,624.967712 
	C1015.573242,637.688110 1013.977600,650.478882 1011.856689,663.045410 
	C1008.549011,682.643677 1004.271118,702.078247 1000.275146,722.233521 
	C995.261047,720.502197 991.472778,719.417542 987.922791,717.807434 
	C987.060486,717.416321 986.370178,715.155029 986.636780,713.990845 
	C990.285095,698.059265 994.586121,682.262085 997.739990,666.237610 
	C999.942749,655.045715 1000.399780,643.522339 1002.055115,632.208191 
	C1005.156250,611.012390 1005.855591,589.664429 1004.777161,568.381409 
	C1003.893738,550.947632 1001.485962,533.548157 998.926025,516.256042 
	C996.934814,502.805237 994.023499,489.457825 990.840454,476.228180 
	C988.811707,467.796204 985.630676,459.632050 982.798767,451.405487 
	C980.335144,444.248810 977.966736,437.029907 974.962952,430.095581 
	C970.617798,420.064972 965.846924,410.212402 961.025208,400.398102 
	C959.361816,397.012390 960.074158,395.222839 963.481750,394.365906 
	C976.424744,416.155396 986.422180,439.381226 994.470154,463.328827 
	C999.968994,479.691071 1003.791504,496.638062 1007.904724,513.435974 
	C1010.102661,522.412720 1011.328491,531.627380 1012.996216,541.190613 
z"/>
<path fill="#2F4D54" opacity="1.000000" stroke="none" 
	d="
M430.958557,585.000000 
	C425.580048,584.200684 424.108673,586.307495 423.825928,591.218323 
	C423.447723,597.786194 421.840973,604.283203 420.756592,610.841919 
	C415.114929,610.841919 409.830933,610.841919 403.333160,610.841919 
	C409.373505,575.845093 415.354187,541.193970 421.383026,506.263672 
	C427.329498,506.263672 433.424774,506.263672 440.035095,506.263672 
	C445.813263,540.932129 451.599609,575.649719 457.490967,610.997314 
	C451.977722,610.997314 447.177307,611.216064 442.422882,610.845337 
	C441.216370,610.751160 439.376038,608.912781 439.162292,607.649841 
	C438.182220,601.859192 437.406647,596.002747 437.093048,590.141235 
	C436.878723,586.135559 435.459961,584.346375 430.958557,585.000000 
M431.999664,552.730225 
	C431.556122,550.978394 431.112579,549.226562 430.486603,546.754333 
	C429.332550,554.624329 428.304474,561.635193 427.259460,568.761597 
	C429.510345,568.761597 431.603485,568.761597 434.036804,568.761597 
	C433.333496,563.528259 432.666748,558.567261 431.999664,552.730225 
z"/>
<path fill="#2F4D54" opacity="1.000000" stroke="none" 
	d="
M543.283325,575.382202 
	C547.446350,552.260010 551.389343,529.523254 555.403687,506.374664 
	C561.152527,506.374664 567.210754,506.374664 574.042603,506.374664 
	C579.780762,540.763672 585.572449,575.473633 591.497498,610.982422 
	C585.838196,610.982422 580.746643,611.164490 575.690552,610.822449 
	C574.727356,610.757324 573.311768,608.710510 573.117737,607.425171 
	C572.216003,601.450439 571.568481,595.430969 571.039307,589.409119 
	C570.761841,586.250671 569.619934,584.456787 566.180664,585.003052 
	C563.038452,585.502136 558.612671,583.036926 557.951782,589.045288 
	C557.154846,596.291199 555.965210,603.494019 554.929688,610.827820 
	C549.265503,610.827820 543.976318,610.827820 537.587830,610.827820 
	C539.431824,599.019897 541.247498,587.393799 543.283325,575.382202 
M567.000000,561.426270 
	C566.343323,556.790894 565.686584,552.155518 565.029907,547.520081 
	C564.805664,547.569458 564.581421,547.618835 564.357178,547.668213 
	C563.329529,554.666504 562.301880,561.664795 561.261841,568.747681 
	C563.548401,568.747681 565.638855,568.747681 568.177979,568.747681 
	C567.745728,566.390137 567.373169,564.358215 567.000000,561.426270 
z"/>
<path fill="#2F4D54" opacity="1.000000" stroke="none" 
	d="
M318.000000,598.985229 
	C318.000000,567.872620 318.000000,537.256775 318.000000,506.048798 
	C329.468140,506.048798 340.731903,505.702820 351.958649,506.197296 
	C357.429199,506.438263 360.986023,511.531097 360.994507,517.167236 
	C361.012482,529.154724 361.033478,541.142395 360.987732,553.129700 
	C360.959320,560.565979 356.577911,564.925049 349.154114,564.991821 
	C344.336609,565.035095 339.518433,565.000000 334.250854,565.000000 
	C334.250854,580.215515 334.250854,595.272644 334.250854,610.663330 
	C328.750549,610.663330 323.688690,610.663330 318.000000,610.663330 
	C318.000000,607.010986 318.000000,603.246460 318.000000,598.985229 
M345.000000,545.226318 
	C345.000000,540.244507 345.000000,535.262634 345.000000,530.280823 
	C345.000000,520.062134 345.000000,520.062134 334.218414,521.470337 
	C334.218414,530.822815 334.218414,540.200806 334.218414,549.996216 
	C336.875732,549.996216 339.437988,550.434387 341.723145,549.828125 
	C343.045807,549.477295 343.922211,547.444336 345.000000,545.226318 
z"/>
<path fill="#2F4D54" opacity="1.000000" stroke="none" 
	d="
M856.054443,609.736084 
	C856.011047,575.092773 856.011047,540.928772 856.011047,506.382446 
	C866.159424,506.382446 876.226257,506.382446 886.648132,506.382446 
	C886.648132,510.889282 886.648132,515.618835 886.648132,520.823853 
	C882.387817,520.823853 877.978455,520.823853 873.289795,520.823853 
	C873.289795,530.682556 873.289795,540.080566 873.289795,549.946716 
	C877.738403,549.946716 882.151428,549.946716 886.771301,549.946716 
	C886.771301,555.016785 886.771301,559.632080 886.771301,564.714355 
	C882.496033,564.714355 878.089783,564.714355 873.343933,564.714355 
	C873.343933,575.235535 873.343933,585.301758 873.343933,595.837158 
	C877.627075,595.837158 882.037048,595.837158 886.716919,595.837158 
	C886.716919,601.028320 886.716919,605.758850 886.716919,610.215454 
	C876.452576,610.215454 866.275269,610.215454 856.054443,609.736084 
z"/>
<path fill="#2F4D54" opacity="1.000000" stroke="none" 
	d="
M369.000000,555.000000 
	C369.000000,538.528381 369.000000,522.556763 369.000000,506.293335 
	C379.344116,506.293335 389.407104,506.293335 399.736267,506.293335 
	C399.736267,511.070862 399.736267,515.800720 399.736267,520.820557 
	C395.324860,520.820557 391.041626,520.820557 386.379333,520.820557 
	C386.379333,530.492432 386.379333,539.893188 386.379333,549.762573 
	C390.555237,549.762573 394.958160,549.762573 399.679626,549.762573 
	C399.679626,554.951294 399.679626,559.682129 399.679626,564.883057 
	C395.329437,564.883057 390.916962,564.883057 386.260864,564.883057 
	C386.260864,575.409180 386.260864,585.472534 386.260864,595.824951 
	C390.679626,595.824951 394.962067,595.824951 399.622253,595.824951 
	C399.622253,600.824036 399.622253,605.560974 399.622253,610.651855 
	C389.772278,610.651855 379.707092,610.651855 369.000000,610.651855 
	C369.000000,592.349060 369.000000,573.924500 369.000000,555.000000 
z"/>
<path fill="#2F4D54" opacity="1.000000" stroke="none" 
	d="
M652.000000,577.000000 
	C652.000000,588.468140 652.000000,599.436279 652.000000,610.701233 
	C646.670654,610.701233 641.609863,610.701233 636.096680,610.701233 
	C636.096680,580.957703 636.096680,551.238586 636.096680,521.060913 
	C631.602844,521.060913 627.524841,521.060913 623.234009,521.060913 
	C623.234009,515.997253 623.234009,511.383514 623.234009,506.383820 
	C636.818542,506.383820 650.544800,506.383820 664.636597,506.383820 
	C664.636597,510.860077 664.636597,515.591675 664.636597,520.789917 
	C660.750977,520.789917 656.680786,520.789917 652.000000,520.789917 
	C652.000000,539.663025 652.000000,558.081543 652.000000,577.000000 
z"/>
<path fill="#2F4D54" opacity="1.000000" stroke="none" 
	d="
M707.000610,607.814087 
	C707.000000,578.717407 707.000000,550.105225 707.000000,521.032288 
	C702.572510,521.032288 698.494568,521.032288 694.219727,521.032288 
	C694.219727,515.965637 694.219727,511.352631 694.219727,506.368469 
	C707.849548,506.368469 721.576843,506.368469 735.653320,506.368469 
	C735.653320,510.898132 735.653320,515.625427 735.653320,520.824951 
	C731.718628,520.824951 727.643066,520.824951 723.131836,520.824951 
	C723.131836,551.003235 723.131836,580.725281 723.131836,610.995544 
	C718.263733,610.995544 713.815308,611.134399 709.390381,610.873779 
	C708.546387,610.824036 707.795227,609.197571 707.000610,607.814087 
z"/>
<path fill="#2F4D54" opacity="1.000000" stroke="none" 
	d="
M613.000000,528.000061 
	C613.000000,550.804993 613.000000,573.109985 613.000000,595.880005 
	C618.337708,595.880005 623.413635,595.880005 628.737549,595.880005 
	C628.737549,601.072388 628.737549,605.802307 628.737549,610.767578 
	C618.318481,610.767578 608.039307,610.767578 597.379395,610.767578 
	C597.379395,576.161926 597.379395,541.433228 597.379395,506.351807 
	C602.218811,506.351807 607.286011,506.351807 613.000000,506.351807 
	C613.000000,513.307617 613.000000,520.403870 613.000000,528.000061 
z"/>
<path fill="#2F4D54" opacity="1.000000" stroke="none" 
	d="
M672.000000,550.000000 
	C672.000000,535.208374 672.000000,520.916809 672.000000,506.313293 
	C677.297058,506.313293 682.354614,506.313293 687.709900,506.313293 
	C687.709900,540.983337 687.709900,575.677734 687.709900,610.686462 
	C682.703491,610.686462 677.645874,610.686462 672.000000,610.686462 
	C672.000000,590.643555 672.000000,570.571777 672.000000,550.000000 
z"/>
<path fill="#C4A068" opacity="1.000000" stroke="none" 
	d="
M456.298706,685.000000 
	C451.033325,685.295044 448.767487,683.085999 448.978149,678.230103 
	C449.100067,675.419678 449.000214,672.599670 449.000214,669.439087 
	C451.932495,669.439087 454.579193,669.439087 457.275574,669.439087 
	C457.275574,671.751648 457.275574,673.631226 457.275574,675.484741 
	C463.354584,676.368713 463.253235,676.369202 463.223083,670.189514 
	C463.212341,667.993835 463.826477,665.795166 464.245026,662.998901 
	C460.739502,662.998901 457.946381,662.964478 455.154419,663.007080 
	C451.092957,663.069092 448.993774,661.167969 448.999390,657.046936 
	C449.008209,650.549927 448.967987,644.052612 449.019592,637.556030 
	C449.048126,633.965393 450.961273,632.031128 454.552307,632.020447 
	C467.421539,631.981995 480.290955,632.005371 493.578918,632.005371 
	C493.578918,634.592957 493.578918,636.964478 493.578918,639.685059 
	C491.715271,639.856384 489.779449,640.034241 487.234009,640.268188 
	C487.234009,654.901672 487.234009,669.612610 487.234009,684.656250 
	C484.259613,684.656250 481.887299,684.656250 479.075012,684.656250 
	C479.075012,669.880981 479.075012,655.287903 479.075012,640.352173 
	C476.611481,640.352173 474.573029,640.352173 472.216980,640.352173 
	C472.083435,642.418579 471.958038,644.359314 471.810333,646.644897 
	C469.316925,646.644897 466.935272,646.644897 464.223328,646.644897 
	C464.090637,644.604614 463.964508,642.665222 463.815125,640.368103 
	C461.669220,640.368103 459.623169,640.368103 457.285858,640.368103 
	C457.285858,645.039001 457.285858,649.633606 457.285858,655.000000 
	C459.866089,655.000000 462.452698,654.973755 465.038544,655.005432 
	C470.473938,655.072083 471.929382,656.424561 471.985718,661.645386 
	C472.046814,667.308838 471.944611,672.974060 472.017029,678.637207 
	C472.072113,682.944092 470.125946,685.093384 465.754822,685.010071 
	C462.757294,684.952942 459.757782,684.999695 456.298706,685.000000 
z"/>
<path fill="#C4A068" opacity="1.000000" stroke="none" 
	d="
M871.927490,659.000000 
	C874.720276,659.000000 877.025085,659.000000 879.652100,659.000000 
	C879.652100,660.743774 879.652100,662.115723 879.652100,663.745361 
	C789.287048,663.745361 699.074951,663.745361 608.406067,663.745361 
	C608.267517,662.444031 608.121094,661.069336 607.900757,659.000000 
	C696.020142,659.000000 783.729797,659.000000 871.927490,659.000000 
z"/>
<path fill="#C4A068" opacity="1.000000" stroke="none" 
	d="
M548.963440,680.410889 
	C547.304016,682.231689 545.761475,684.644409 544.021301,684.796448 
	C538.268677,685.299255 532.444641,684.986023 526.326538,684.986023 
	C526.326538,667.352356 526.326538,650.105469 526.326538,632.073914 
	C532.414917,632.073914 538.682983,631.725403 544.886597,632.206848 
	C548.504761,632.487671 549.051086,635.743713 549.032104,639.004272 
	C548.952576,652.658264 548.993225,666.312927 548.963440,680.410889 
M534.000000,664.488342 
	C534.000000,668.565857 534.000000,672.643372 534.000000,676.741577 
	C536.642395,676.741577 538.564697,676.741577 540.725708,676.741577 
	C540.725708,664.484619 540.725708,652.483398 540.725708,640.351929 
	C538.416382,640.351929 536.385742,640.351929 534.000000,640.351929 
	C534.000000,648.295349 534.000000,655.893311 534.000000,664.488342 
z"/>
<path fill="#C4A068" opacity="1.000000" stroke="none" 
	d="
M569.000000,675.814697 
	C569.000000,663.371338 568.985229,651.405762 569.006165,639.440186 
	C569.016785,633.375549 570.299133,632.036865 576.136230,632.006226 
	C591.863098,631.923706 591.121460,630.812439 591.012756,646.669556 
	C590.944397,656.640442 591.003662,666.612061 590.998840,676.583374 
	C590.995178,684.060730 590.031006,684.994080 582.347412,684.999817 
	C580.851746,685.000916 579.356018,685.000610 577.860352,684.999878 
	C569.902527,684.995911 569.027100,684.135498 569.000000,675.814697 
M583.000000,660.498169 
	C583.000000,653.761658 583.000000,647.025146 583.000000,640.247681 
	C580.723694,640.247681 579.128967,640.247681 577.268250,640.247681 
	C577.268250,652.488770 577.268250,664.492676 577.268250,676.656860 
	C579.229248,676.656860 580.925903,676.656860 583.000000,676.656860 
	C583.000000,671.385925 583.000000,666.441223 583.000000,660.498169 
z"/>
<path fill="#C4A068" opacity="1.000000" stroke="none" 
	d="
M512.000000,658.999023 
	C512.000000,649.874023 512.000000,641.248718 512.000000,632.315063 
	C514.677917,632.315063 516.938232,632.315063 519.614014,632.315063 
	C519.733215,633.444946 519.979675,634.706787 519.982178,635.969177 
	C520.009888,649.955933 520.020752,663.942749 519.989746,677.929504 
	C519.977173,683.578735 518.590881,684.939026 512.969482,684.993286 
	C509.473114,685.027039 505.975952,685.018494 502.479523,684.986877 
	C499.408936,684.959167 497.135986,683.433899 497.106445,680.373230 
	C496.952759,664.432251 497.034821,648.489075 497.034821,632.276306 
	C499.751251,632.276306 502.012146,632.276306 504.868713,632.276306 
	C504.868713,646.994385 504.868713,661.711121 504.868713,676.706482 
	C507.384491,676.706482 509.313995,676.706482 512.000000,676.706482 
	C512.000000,671.019165 512.000000,665.258972 512.000000,658.999023 
z"/>
<path fill="#C4A068" opacity="1.000000" stroke="none" 
	d="
M335.011353,665.000000 
	C330.549591,665.000000 326.585693,665.000000 322.327393,665.000000 
	C322.327393,663.222961 322.327393,661.852112 322.327393,660.239746 
	C358.749298,660.239746 394.960236,660.239746 431.610962,660.239746 
	C431.739532,661.587585 431.870575,662.961365 432.065063,665.000000 
	C399.610809,665.000000 367.559998,665.000000 335.011353,665.000000 
z"/>
<path fill="#C4A068" opacity="1.000000" stroke="none" 
	d="
M562.999695,680.802490 
	C563.096558,688.092834 558.195618,683.745605 555.308228,685.145630 
	C555.308228,667.251709 555.308228,649.918213 555.308228,632.292358 
	C557.716675,632.292358 559.973572,632.292358 563.000000,632.292358 
	C563.000000,648.267212 563.000000,664.297241 562.999695,680.802490 
z"/>
<path fill="#FFFFFF" opacity="1.000000" stroke="none" 
	d="
M816.000000,547.000000 
	C816.000000,538.205200 816.000000,529.910400 816.000000,521.776855 
	C816.512939,521.431885 816.773865,521.103149 817.036560,521.101685 
	C831.912720,521.017517 828.815613,519.336670 828.949829,532.575378 
	C829.145386,551.868164 828.874451,571.165771 829.095276,590.457947 
	C829.145508,594.845154 827.888733,596.587402 823.468140,596.048523 
	C821.199524,595.771973 818.869446,596.000000 816.000000,596.000000 
	C816.000000,579.644836 816.000000,563.572449 816.000000,547.000000 
z"/>
<path fill="#FFFFFF" opacity="1.000000" stroke="none" 
	d="
M431.999847,553.168213 
	C432.666748,558.567261 433.333496,563.528259 434.036804,568.761597 
	C431.603485,568.761597 429.510345,568.761597 427.259460,568.761597 
	C428.304474,561.635193 429.332550,554.624329 430.486603,546.754333 
	C431.112579,549.226562 431.556122,550.978394 431.999847,553.168213 
z"/>
<path fill="#FFFFFF" opacity="1.000000" stroke="none" 
	d="
M567.000305,561.876282 
	C567.373169,564.358215 567.745728,566.390137 568.177979,568.747681 
	C565.638855,568.747681 563.548401,568.747681 561.261841,568.747681 
	C562.301880,561.664795 563.329529,554.666504 564.357178,547.668213 
	C564.581421,547.618835 564.805664,547.569458 565.029907,547.520081 
	C565.686584,552.155518 566.343323,556.790894 567.000305,561.876282 
z"/>
<path fill="#FFFFFF" opacity="1.000000" stroke="none" 
	d="
M344.999725,545.697388 
	C343.922211,547.444336 343.045807,549.477295 341.723145,549.828125 
	C339.437988,550.434387 336.875732,549.996216 334.218414,549.996216 
	C334.218414,540.200806 334.218414,530.822815 334.218414,521.470337 
	C345.000000,520.062134 345.000000,520.062134 345.000000,530.280823 
	C345.000000,535.262634 345.000000,540.244507 344.999725,545.697388 
z"/>
<path fill="#FFFFFF" opacity="1.000000" stroke="none" 
	d="
M534.000000,663.989807 
	C534.000000,655.893311 534.000000,648.295349 534.000000,640.351929 
	C536.385742,640.351929 538.416382,640.351929 540.725708,640.351929 
	C540.725708,652.483398 540.725708,664.484619 540.725708,676.741577 
	C538.564697,676.741577 536.642395,676.741577 534.000000,676.741577 
	C534.000000,672.643372 534.000000,668.565857 534.000000,663.989807 
z"/>
<path fill="#FFFFFF" opacity="1.000000" stroke="none" 
	d="
M583.000000,660.997314 
	C583.000000,666.441223 583.000000,671.385925 583.000000,676.656860 
	C580.925903,676.656860 579.229248,676.656860 577.268250,676.656860 
	C577.268250,664.492676 577.268250,652.488770 577.268250,640.247681 
	C579.128967,640.247681 580.723694,640.247681 583.000000,640.247681 
	C583.000000,647.025146 583.000000,653.761658 583.000000,660.997314 
z"/>
</svg>